<svg width="720" height="520" viewBox="0 0 720 520" fill="none" xmlns="http://www.w3.org/2000/svg">
  <defs>
    <linearGradient id="bg" x1="110" y1="64" x2="624" y2="452" gradientUnits="userSpaceOnUse">
      <stop offset="0" stop-color="#15212E"/>
      <stop offset="1" stop-color="#0F1821"/>
    </linearGradient>
  </defs>
  <rect x="74" y="62" width="572" height="396" rx="36" fill="url(#bg)" stroke="rgba(255,255,255,0.07)" stroke-width="2"/>
  <rect x="124" y="126" width="456" height="154" rx="24" fill="#182735" stroke="#7090A6" stroke-opacity="0.28" stroke-width="2"/>
  <path d="M154 204C190 204 202 182 238 182C274 182 286 224 322 224C358 224 370 164 406 164C442 164 454 216 490 216C526 216 538 196 560 196" stroke="#5EA6D3" stroke-opacity="0.46" stroke-width="3" stroke-linecap="round"/>
  <path d="M154 232H548" stroke="#8399AB" stroke-opacity="0.18" stroke-width="2"/>
  <rect x="150" y="330" width="152" height="72" rx="18" fill="#162433" stroke="#6E93AB" stroke-opacity="0.22"/>
  <rect x="324" y="330" width="246" height="72" rx="18" fill="#152230" stroke="#6E93AB" stroke-opacity="0.16"/>
  <circle cx="188" cy="366" r="10" fill="#7CB98B" fill-opacity="0.18" stroke="#7CB98B" stroke-opacity="0.42"/>
  <path d="M214 366H274" stroke="#92AABB" stroke-opacity="0.28" stroke-width="2"/>
  <path d="M354 356H540" stroke="#92AABB" stroke-opacity="0.2" stroke-width="2"/>
  <path d="M354 378H514" stroke="#92AABB" stroke-opacity="0.14" stroke-width="2"/>
</svg>
