<svg width="1920" height="360" viewBox="0 0 1920 360" fill="none" xmlns="http://www.w3.org/2000/svg">
  <defs>
    <linearGradient id="bg" x1="40" y1="0" x2="1880" y2="360" gradientUnits="userSpaceOnUse">
      <stop offset="0" stop-color="#0E151D"/>
      <stop offset="0.58" stop-color="#131D28"/>
      <stop offset="1" stop-color="#192736"/>
    </linearGradient>
    <radialGradient id="glow" cx="0" cy="0" r="1" gradientUnits="userSpaceOnUse" gradientTransform="translate(1380 136) rotate(18) scale(420 190)">
      <stop stop-color="#345C76" stop-opacity="0.2"/>
      <stop offset="1" stop-color="#345C76" stop-opacity="0"/>
    </radialGradient>
  </defs>
  <rect width="1920" height="360" rx="28" fill="url(#bg)"/>
  <rect x="24" y="24" width="1872" height="312" rx="22" stroke="rgba(255,255,255,0.06)" stroke-width="1"/>
  <ellipse cx="1380" cy="136" rx="420" ry="190" fill="url(#glow)"/>
  <g opacity="0.14" stroke="#7C93A8" stroke-width="1">
    <path d="M94 100H866"/>
    <path d="M94 132H916"/>
    <path d="M94 164H966"/>
    <path d="M94 196H1016"/>
  </g>
  <g opacity="0.18">
    <circle cx="342" cy="236" r="8" fill="#5EA6D3"/>
    <circle cx="474" cy="188" r="7" fill="#7CB98B"/>
    <circle cx="598" cy="220" r="7" fill="#C59A63"/>
    <circle cx="724" cy="168" r="8" fill="#5EA6D3"/>
    <circle cx="860" cy="214" r="7" fill="#7CB98B"/>
    <path d="M342 236L474 188L598 220L724 168L860 214" stroke="#85AAC3" stroke-width="2"/>
  </g>
  <g opacity="0.18">
    <rect x="1172" y="88" width="134" height="92" rx="14" fill="#172534" stroke="#5EA6D3" stroke-opacity="0.3"/>
    <rect x="1328" y="88" width="194" height="92" rx="14" fill="#152230" stroke="#7DA7C4" stroke-opacity="0.24"/>
    <rect x="1172" y="196" width="350" height="80" rx="16" fill="#14202D" stroke="#6D8EA7" stroke-opacity="0.18"/>
  </g>
  <g opacity="0.14" fill="none" stroke="#9CB2C3" stroke-width="1">
    <path d="M1204 116H1270"/>
    <path d="M1204 140H1270"/>
    <path d="M1358 116H1486"/>
    <path d="M1358 140H1486"/>
    <path d="M1204 222H1492"/>
    <path d="M1204 246H1492"/>
  </g>
  <g opacity="0.16">
    <path d="M1564 238L1620 206L1674 232L1730 196L1786 220" stroke="#5EA6D3" stroke-width="2"/>
    <path d="M1564 262L1620 246L1674 270L1730 236L1786 258" stroke="#C59A63" stroke-opacity="0.35" stroke-width="2"/>
  </g>
</svg>
